<svg xmlns="http://www.w3.org/2000/svg" viewBox="0 0 175.17 85"><defs><style>.cls-1{fill:#00ab4e;}.cls-2{fill:#20419a;}.cls-3{fill:#464547;}.cls-4{fill:#ce372f;}.cls-5{fill:#fff;}.cls-6{fill:#ec008c;opacity:0.5;}</style></defs><g id="Layer_2" data-name="Layer 2"><g id="Layer_1-2" data-name="Layer 1"><path class="cls-1" d="M26.91,48.12c1.34-3.84,2.64-7.58,3.94-11.33,1.14-.06,2.29-.08,3.43-.19a12.64,12.64,0,0,0,5.66-1.79,6.38,6.38,0,0,0,3.15-4.93c.24-2.78-2-5.41-5-6a5.86,5.86,0,0,0-6.37,2.74,45.35,45.35,0,0,0-2.51,5.65Q25.57,41.43,22,50.63a12.58,12.58,0,0,0-.68,2.65,1.59,1.59,0,0,0,1.32,1.93,3.21,3.21,0,0,0,1,.14c4.75-.12,9.5-.16,14.24-.43,2.12-.12,4.2-.77,6.31-1.1a16.36,16.36,0,0,1,3.42-.24c1.51.07,2,.88,1.49,2.26A29,29,0,0,1,45,62.72,17.39,17.39,0,0,1,31.36,69.9c-5.63.24-11.28.28-16.93.26a18,18,0,0,1-8-1.85,11.12,11.12,0,0,1-6.3-9.08A22.93,22.93,0,0,1,1.88,47.91q4-10.53,8.2-21a33,33,0,0,1,7-10.82A25,25,0,0,1,32.81,8.35a56.7,56.7,0,0,1,13,.14,18.83,18.83,0,0,1,8.53,3.31,12.49,12.49,0,0,1,5.34,9,24.31,24.31,0,0,1-6.51,20.11c-2.76,3-6.44,4.57-10.31,5.67a41.8,41.8,0,0,1-10.31,1.47c-1.62,0-3.24,0-4.87.06Z"/><path class="cls-1" d="M94,27.26c.87-2.16,1.73-4.24,2.53-6.34A4.71,4.71,0,0,0,97,19c-.08-1.44-1.15-2.22-2.71-2.26a4.49,4.49,0,0,0-4.7,3.08c-1.87,4.66-3.77,9.31-5.65,14-1.08,2.68-2.23,5.33-3.22,8a6.92,6.92,0,0,1-6.25,4.78c-5.55.67-11.09,1.47-16.64,2.21L56.67,49c.63-1.65,1.2-3.18,1.81-4.7,3.48-8.66,6.9-17.36,10.49-26A29.87,29.87,0,0,1,79.7,4.67,26,26,0,0,1,94.39,0c3,0,6,0,9,.18a20.51,20.51,0,0,1,8,2.06A12.31,12.31,0,0,1,118.36,12a25.17,25.17,0,0,1-.93,11c-.72,2.49-2.65,3.66-5.07,4.12a6.11,6.11,0,0,1-1.12.13Z"/><path class="cls-2" d="M104.37,68.55c1-2.42,1.9-4.77,2.84-7.11q5.57-13.86,11.12-27.71a.88.88,0,0,1,1-.65c5,0,10-.11,15-.18,2.65,0,5.31-.2,8-.11a7,7,0,0,0,6.35-4.35c.58-1.51,1.14-3,1.79-4.51a6.2,6.2,0,0,1,5.84-4.05c5.48-.14,11-.18,16.44-.25l.58,0c-.49,1.29-1,2.53-1.45,3.77A97.23,97.23,0,0,1,168,32.77c-4.82,9.28-12.08,15.48-22.82,16.65-3.94.43-7.94.36-11.91.46a1.15,1.15,0,0,0-1.27.83c-2.36,5.78-4.77,11.54-7.15,17.31-.14.35-.25.59-.73.59q-9.73,0-19.48,0Z"/><path class="cls-2" d="M77.43,49.62c-.25,1.06-.57,2.09-.75,3.15a1.65,1.65,0,0,0,1.44,2.06,5.16,5.16,0,0,0,5.65-2.21,11.32,11.32,0,0,0,1.1-2.27,3.29,3.29,0,0,0,.06-1.65c-.24-1.19-.7-2.35-.86-3.55a5.78,5.78,0,0,1,.24-2.54C84.82,41,85.49,39.5,86.15,38a4.18,4.18,0,0,1,4-2.71c7.44,0,14.88,0,22.31,0l.37,0c-.49,1.25-1,2.47-1.44,3.68-3.83,9.69-7.68,19.37-11.48,29.07a1.21,1.21,0,0,1-1.22.9c-4.58.24-9.15.58-13.73.72-4.93.14-9.88.17-14.82.12a17.46,17.46,0,0,1-9.4-2.58,11.25,11.25,0,0,1-5.09-8.46,19.11,19.11,0,0,1,.12-5.7c.07-.43.23-.57.66-.62l19.64-2.63C76.55,49.71,77,49.67,77.43,49.62Z"/><path class="cls-1" d="M120,29.7c1.62-4,3.2-7.94,4.77-11.86Q128,9.67,131.26,1.5a.81.81,0,0,1,.91-.62c10.24,0,20.47,0,30.71,0a13.71,13.71,0,0,1,7,1.84,10.75,10.75,0,0,1,5.05,11.62c-.38,1.9-.38,1.88-2.31,1.91q-10.9.14-21.8.3a19.79,19.79,0,0,0-2,0,5,5,0,0,0-4.28,3.21c-.84,2-1.69,4-2.47,6.07a5.24,5.24,0,0,1-5.29,3.64l-15,.18C121.16,29.71,120.61,29.7,120,29.7Z"/><path class="cls-3" d="M45.35,74.8h1.3v4.37h5.77V74.83h1.4v10H52.46V80.27h-5.8v4.56H45.35Z"/><path class="cls-3" d="M96,79.79c0,.61,0,1.22,0,1.83a3.15,3.15,0,0,1-2.42,3.09,6.42,6.42,0,0,1-4,0,3.07,3.07,0,0,1-2.29-3c-.06-1.24-.06-2.49,0-3.73a3.16,3.16,0,0,1,2.39-3.06,6.42,6.42,0,0,1,4,0,3.1,3.1,0,0,1,2.31,2.95c0,.63,0,1.27,0,1.91Zm-7.38,0h0c0,.47,0,.94,0,1.41.07,1.6.71,2.39,2.18,2.63a5.12,5.12,0,0,0,1.61,0,2.23,2.23,0,0,0,2.13-2.29,21.4,21.4,0,0,0,0-3.3c-.12-1.54-.73-2.33-2-2.51a6.9,6.9,0,0,0-2.22.08,2,2,0,0,0-1.65,1.86C88.62,78.42,88.62,79.13,88.57,79.83Z"/><path class="cls-3" d="M1.8,75.82v3.36H7.08v1.06H1.78V83.8H8v1H.39v-10H8v1Z"/><path class="cls-3" d="M113.1,80.71v4.12h-1.36V74.7a57.37,57.37,0,0,1,6,.27,2.72,2.72,0,0,1,2.3,3.7,3.08,3.08,0,0,1-2.9,2,18.52,18.52,0,0,1-2,.06C114.53,80.72,113.87,80.71,113.1,80.71Zm0-1.14a39.72,39.72,0,0,0,4.09,0,1.58,1.58,0,0,0,1.58-1.72,1.71,1.71,0,0,0-1.62-1.88c-1.33-.13-2.69,0-4.05,0Z"/><path class="cls-3" d="M151.6,84.82l1.8-3.95c.86-1.89,1.73-3.78,2.57-5.69.16-.39.42-.43.77-.42s.6,0,.78.4c1.4,3.14,2.83,6.26,4.26,9.39,0,.08.05.17.07.24s-.06.06-.08.06c-1.31.1-1.4.12-1.81-1.13a1.57,1.57,0,0,0-1.91-1.28c-1.14.11-2.3,0-3.45,0a1,1,0,0,0-.65.42,4,4,0,0,0-.42.89C153,84.93,153,84.93,151.6,84.82ZM159,81.48l-2.23-5.09-2.2,5.09Z"/><path class="cls-4" d="M157.68,60.52c.06,0,.08-.06.1-.06l1.59-.17.13,1.37c.5.44.89.81,1.32,1.13a.85.85,0,0,0,.57.08c.58-.07,1.14-.18,1.63-.26l.3,1.61c-1,.52-1.73.26-2.09-.92l-1.82,2.58c.15,0,.32.05.48.06,1.12,0,1.33.2,1.53,1.3.09.51.19,1,.3,1.59l-.55.14c-1.14.22-1.25.13-1.38-1.07,0-.55,0-1.24-.64-1.43s-.82.57-1.16.93-.57.91.14,1.4a10,10,0,0,1-1.63.07c-.21,0-.56-.46-.52-.63A4.46,4.46,0,0,1,157.37,66l.84-.89a2.75,2.75,0,0,0-.43,0c-1.33,0-1.81-.72-1.23-1.94a2,2,0,0,1,.7-.76A1.19,1.19,0,0,0,157.68,60.52Zm1.83,2.77c-.36-.35-.59-.76-.82-.76-.64,0-.72.55-.75,1s.09,1,.54.86S159.1,63.78,159.51,63.29Z"/><path class="cls-4" d="M135.8,68.84a15.78,15.78,0,0,0-1.67.18.68.68,0,0,1-.9-.62c-.14-.69-.27-1.39-.38-2.08a.93.93,0,0,0-.95-.86c-.55-.08-.58.39-.72.7a9.86,9.86,0,0,0-.57,1.66,3.8,3.8,0,0,0,0,1c-.26,0-.67.11-1.09.16-.74.09-1.11-.21-.87-.9A30,30,0,0,1,130.08,65a12.22,12.22,0,0,1,.83-1.25h-1c-.09-.83-.18-1.66-.28-2.48l-.19,0s.07-.07.11-.08c1.79-.51,1.79-.51,1.94,1.36,0,.16,0,.32.08.53l1.55-.21L131.73,65l1.15-.29c.87-.22,1.25,0,1.46.83.15.63.19,1.3.33,1.94.07.35.21.92.4,1s.72-.22,1.1-.34l1.57-.47.19,1.9C136.87,69.86,136.36,69.72,135.8,68.84Zm-4.49-6.27.05,0a.18.18,0,0,0-.09,0s0,0,0,0Z"/><path class="cls-4" d="M142.53,63.86c.07-.52.15-1,.18-1.44,0-.7-.28-.92-1-.76-.38.09-.77.11-1.14.16l.08-1.65c1.39-.38,2,0,1.91,1.11h1.18c.53,0,.73.27.67.75s-.14,1.07-.22,1.68l2.75-.18c0,.54.1,1.06.15,1.61-.95.54-1.59.22-1.86-1l-1.17.09c0,1.52-.77,3-.22,4.62a9.12,9.12,0,0,1-1.39.24c-.57,0-.62-.39-.56-.82.14-1,.29-2,.43-3.08,0-.25,0-.5.08-.83l-1.2.06c-.43,1.36-1.05,1.81-2,1.49l.26-1.77Zm0-2.59s0,0,0,0a.07.07,0,0,0-.05,0l.07,0Z"/><path class="cls-4" d="M154.79,63.1l.09,1.73c-1,.59-1.67.27-2-1.14l-2.65,1.38c.15,1.19.3,2.44.46,3.75l-.46.12c-1.28.26-1.27.2-1.37-1.06a12.86,12.86,0,0,0-.6-2.87c-.34-1-.55-2,.28-2.82a3.28,3.28,0,0,1,3.21-.8c.73.16.95.77.76,2Zm-4.95,1.45A2.2,2.2,0,0,0,151,62.68c0-.28-.23-.59-.36-.89-.28.16-.67.25-.82.5A2.17,2.17,0,0,0,149.84,64.55Z"/><path class="cls-3" d="M25.76,75.83H22.14v-1h8.47v1h-3.5v9H25.76Z"/><path class="cls-4" d="M164.51,69.68V67.85l2.57-.19c-.37-1.07-.76-2-1-3a2.87,2.87,0,0,1,3.34-3.58,1.34,1.34,0,0,1,1.24,1.07,1.73,1.73,0,0,1-.81,1.94,16,16,0,0,1-2.15.7l1,2.6c-.59.22-1.23.43-1.85.69a.73.73,0,0,0-.37.47A1.43,1.43,0,0,1,164.51,69.68Zm3-5.64.21.1a2.2,2.2,0,0,0,1.42-1.61c.06-.27-.12-.58-.19-.87-.29.13-.73.2-.83.43A13.82,13.82,0,0,0,167.51,64Z"/><path class="cls-3" d="M70,74.8h1.33v10H70Z"/><path class="cls-3" d="M135.49,74.8h1.31v10h-1.31Z"/><path class="cls-5" d="M131.31,62.57l-.08,0s0-.05,0,0a.18.18,0,0,1,.09,0Z"/><path class="cls-5" d="M142.54,61.27l0,0-.07,0a.07.07,0,0,1,.05,0S142.53,61.25,142.54,61.27Z"/><circle class="cls-6" cx="170.71" cy="62.9" r="1.18"/></g></g></svg>